<svg xmlns="http://www.w3.org/2000/svg" viewBox="0 0 24 24" role="img" aria-label="Escalator">
  <rect width="24" height="24" fill="none"/>
  <path d="M4.7 2.8h14.6c1.05 0 1.9.85 1.9 1.9v14.6c0 1.05-.85 1.9-1.9 1.9H4.7a1.9 1.9 0 0 1-1.9-1.9V4.7c0-1.05.85-1.9 1.9-1.9Z" fill="#eee5d0" stroke="#24313b" stroke-width="1.2"/>
  <path d="M5.7 4.15h12.6c.85 0 1.55.7 1.55 1.55v12.6c0 .85-.7 1.55-1.55 1.55H5.7c-.85 0-1.55-.7-1.55-1.55V5.7c0-.85.7-1.55 1.55-1.55Z" fill="none" stroke="#fffaf0" stroke-width="0.75" opacity="0.5"/>
  <path d="M6 16.8 17.8 7" fill="none" stroke="#24313b" stroke-width="3.5" stroke-linecap="round" stroke-linejoin="round"/>
  <path d="M6 16.8 17.8 7" fill="none" stroke="#d8d6c8" stroke-width="2.2" stroke-linecap="round" stroke-linejoin="round"/>
  <path d="M5.3 13.8 14.1 6.5" fill="none" stroke="#f2c64f" stroke-width="1" stroke-linecap="round" stroke-linejoin="round"/>
  <circle cx="16.8" cy="6.3" r="1.25" fill="#f2c64f" stroke="#24313b" stroke-width="0.55"/>
  <circle cx="7.1" cy="17.4" r="1.25" fill="#f2c64f" stroke="#24313b" stroke-width="0.55"/>
</svg>
