<svg xmlns="http://www.w3.org/2000/svg" viewBox="0 0 24 24" role="img" aria-label="Double hotel room">
  <rect width="24" height="24" fill="none"/>
  <path d="M4.7 2.8h14.6c1.05 0 1.9.85 1.9 1.9v14.6c0 1.05-.85 1.9-1.9 1.9H4.7a1.9 1.9 0 0 1-1.9-1.9V4.7c0-1.05.85-1.9 1.9-1.9Z" fill="#eadcff" stroke="#24313b" stroke-width="1.2"/>
  <path d="M5.7 4.15h12.6c.85 0 1.55.7 1.55 1.55v12.6c0 .85-.7 1.55-1.55 1.55H5.7c-.85 0-1.55-.7-1.55-1.55V5.7c0-.85.7-1.55 1.55-1.55Z" fill="none" stroke="#fffaf0" stroke-width="0.75" opacity="0.5"/>
  <rect x="5.7" y="5.8" width="5.2" height="5.8" fill="#9ed1e8" rx="0.8" ry="0.8" stroke="#4d6372" stroke-width="0.55"/>
  <rect x="13.1" y="5.8" width="5.2" height="5.8" fill="#9ed1e8" rx="0.8" ry="0.8" stroke="#4d6372" stroke-width="0.55"/>
  <path d="M6.6 6.9h3.4v1.5H6.6Z" fill="#d9f4fb" opacity="0.8"/>
  <path d="M14 6.9h3.4v1.5H14Z" fill="#d9f4fb" opacity="0.8"/>
  <rect x="4.9" y="14.4" width="7.4" height="4.2" fill="#fffaf0" rx="0.8" ry="0.8" stroke="#24313b" stroke-width="0.6"/>
  <path d="M5.4 16.5h6.4v2.1H5.4Z" fill="#5f9ed1"/>
  <circle cx="6.4" cy="15.5" r="0.75" fill="#f6dd8a"/>
  <rect x="12.5" y="14.4" width="7.4" height="4.2" fill="#fffaf0" rx="0.8" ry="0.8" stroke="#24313b" stroke-width="0.6"/>
  <path d="M13 16.5h6.4v2.1H13Z" fill="#61b574"/>
  <circle cx="14" cy="15.5" r="0.75" fill="#f6dd8a"/>
</svg>
