<svg xmlns="http://www.w3.org/2000/svg" viewBox="0 0 24 24" role="img" aria-label="Vacancy">
  <rect width="24" height="24" fill="none"/>
  <path d="M4.7 2.8h14.6c1.05 0 1.9.85 1.9 1.9v14.6c0 1.05-.85 1.9-1.9 1.9H4.7a1.9 1.9 0 0 1-1.9-1.9V4.7c0-1.05.85-1.9 1.9-1.9Z" fill="#ffd6c8" stroke="#24313b" stroke-width="1.2"/>
  <path d="M5.7 4.15h12.6c.85 0 1.55.7 1.55 1.55v12.6c0 .85-.7 1.55-1.55 1.55H5.7c-.85 0-1.55-.7-1.55-1.55V5.7c0-.85.7-1.55 1.55-1.55Z" fill="none" stroke="#fffaf0" stroke-width="0.75" opacity="0.5"/>
  <path d="M6.2 18.3V8.4h11.6v9.9" fill="#fffaf0" stroke="#24313b" stroke-width="0.8"/>
  <path d="M8.6 18.3v-6.4h6.8v6.4" fill="#d8d6c8" stroke="#24313b" stroke-width="0.65"/>
  <path d="M6.4 7.7h11.2M8.5 5.7h7" fill="none" stroke="#de6150" stroke-width="1.3" stroke-linecap="round" stroke-linejoin="round"/>
  <circle cx="13.9" cy="15.4" r="0.45" fill="#f2c64f"/>
</svg>
