<svg xmlns="http://www.w3.org/2000/svg" viewBox="0 0 24 24" role="img" aria-label="Stairs">
  <rect width="24" height="24" fill="none"/>
  <path d="M4.7 2.8h14.6c1.05 0 1.9.85 1.9 1.9v14.6c0 1.05-.85 1.9-1.9 1.9H4.7a1.9 1.9 0 0 1-1.9-1.9V4.7c0-1.05.85-1.9 1.9-1.9Z" fill="#eee5d0" stroke="#24313b" stroke-width="1.2"/>
  <path d="M5.7 4.15h12.6c.85 0 1.55.7 1.55 1.55v12.6c0 .85-.7 1.55-1.55 1.55H5.7c-.85 0-1.55-.7-1.55-1.55V5.7c0-.85.7-1.55 1.55-1.55Z" fill="none" stroke="#fffaf0" stroke-width="0.75" opacity="0.5"/>
  <path d="M6 17.3h3v-2.4h3v-2.4h3v-2.4h3V7.7h1.5v11.1H6Z" fill="#d8d6c8" stroke="#24313b" stroke-width="0.8" stroke-linejoin="round"/>
  <path d="M6.4 8.2c2.5-2.2 5.4-2.2 8 0" fill="none" stroke="#f2c64f" stroke-width="1" stroke-linecap="round" stroke-linejoin="round"/>
</svg>
